<!--?xml version="1.0" standalone="no"?-->
              <svg id="sw-js-blob-svg" viewBox="0 0 100 100" xmlns="http://www.w3.org/2000/svg" version="1.1">
                    <defs> 
                        <linearGradient id="sw-gradient" x1="0" x2="1" y1="1" y2="0">
                            <stop id="stop1" stop-color="rgba(248, 117, 55, 1)" offset="0%"></stop>
                            <stop id="stop2" stop-color="rgba(251, 168, 31, 1)" offset="100%"></stop>
                        </linearGradient>
                    </defs>
                <path fill="url(#sw-gradient)" d="M23.1,-27C31.1,-20.9,39.4,-14.6,42.2,-6.3C45,2,42.3,12.4,36.6,20C30.9,27.7,22.2,32.5,12.9,36.3C3.5,40.1,-6.5,42.8,-14.6,40C-22.8,37.1,-28.9,28.7,-31.3,20.2C-33.7,11.7,-32.4,3.1,-30.6,-5.1C-28.8,-13.3,-26.6,-21.2,-21.4,-27.8C-16.2,-34.4,-8.1,-39.9,-0.3,-39.5C7.6,-39.2,15.1,-33.1,23.1,-27Z" width="100%" height="100%" transform="translate(50 50)" style="transition: all 0.3s ease 0s;" stroke-width="0"></path>
              </svg>